<svg width="383" height="1108" viewBox="0 0 383 1108" fill="none" xmlns="http://www.w3.org/2000/svg">
<g filter="url(#filter0_di_257_44)">
<path d="M3 0V250C3 283.69 30.3106 311 64 311H117.5C151.189 311 178.5 338.311 178.5 372V1102.5" stroke="#F9B74B" stroke-width="5"/>
</g>
<path d="M213.32 405.488C213.503 406.66 213.87 407.484 214.424 407.959C214.984 408.428 215.785 408.662 216.826 408.662C217.952 408.662 218.841 408.223 219.492 407.344C220.15 406.465 220.485 405.244 220.498 403.682H214.902V402.139H220.498C220.498 400.596 220.16 399.375 219.482 398.477C218.812 397.578 217.871 397.129 216.66 397.129C215.684 397.129 214.922 397.383 214.375 397.891C213.835 398.398 213.483 399.219 213.32 400.352H211.436C211.585 398.861 212.116 397.695 213.027 396.855C213.939 396.009 215.15 395.586 216.66 395.586C217.806 395.586 218.812 395.859 219.678 396.406C220.55 396.947 221.217 397.721 221.68 398.73C222.148 399.733 222.383 400.889 222.383 402.197V403.613C222.383 404.922 222.152 406.077 221.689 407.08C221.227 408.083 220.573 408.854 219.727 409.395C218.887 409.928 217.92 410.195 216.826 410.195C215.277 410.195 214.033 409.788 213.096 408.975C212.165 408.154 211.611 406.992 211.436 405.488H213.32ZM228.867 402.871L231.67 398.623H233.818L229.961 404.268L233.955 410H231.807L228.887 405.674L225.996 410H223.848L227.812 404.268L223.936 398.623H226.074L228.867 402.871ZM245.156 410H243.35V405.137H237.451V410H235.645V398.623H237.451V403.652H243.35V398.623H245.156V410ZM255.664 398.623H257.471V410H255.664V401.367L249.678 410H247.871V398.623H249.678V407.256L255.664 398.623ZM267.969 398.623H269.775V410H267.969V401.367L261.982 410H260.176V398.623H261.982V407.256L267.969 398.623ZM267.9 395.098C267.9 395.885 267.63 396.52 267.09 397.002C266.556 397.477 265.853 397.715 264.98 397.715C264.108 397.715 263.402 397.474 262.861 396.992C262.321 396.51 262.051 395.879 262.051 395.098H263.525C263.525 395.553 263.649 395.911 263.896 396.172C264.144 396.426 264.505 396.553 264.98 396.553C265.436 396.553 265.791 396.426 266.045 396.172C266.305 395.918 266.436 395.56 266.436 395.098H267.9ZM281.289 404.277L284.336 398.623H286.367L282.168 406.025V410H280.361V405.918L276.221 398.623H278.252L281.289 404.277ZM294.873 404.863H289.678V408.525H295.723V410H287.871V398.623H295.664V400.117H289.678V403.379H294.873V404.863ZM315.664 410H302.578V398.623H304.385V408.516H308.213V398.623H310.029V408.516H313.857V398.623H315.664V410ZM325.215 407.275H320.137L319.062 410H317.217L321.895 398.623H323.516L328.125 410H326.289L325.215 407.275ZM320.723 405.801H324.639L322.695 400.83L320.723 405.801ZM337.686 400.117H333.789V410H331.982V400.117H328.105V398.623H337.686V400.117Z" fill="#F9B74B"/>
<circle cx="178.5" cy="403.5" r="6" fill="#E68E00" stroke="white" stroke-width="3"/>
<path d="M216.289 528.23L219.697 522.781H221.904L217.412 529.832L222.012 537H219.785L216.289 531.453L212.773 537H210.557L215.166 529.832L210.664 522.781H212.861L216.289 528.23ZM233.164 531.648C233.164 533.348 232.715 534.692 231.816 535.682C230.918 536.665 229.714 537.156 228.203 537.156C226.712 537.156 225.508 536.658 224.59 535.662C223.678 534.666 223.223 533.312 223.223 531.6V530.994C223.223 529.314 223.675 527.973 224.58 526.971C225.492 525.968 226.693 525.467 228.184 525.467C229.701 525.467 230.905 525.962 231.797 526.951C232.695 527.941 233.151 529.266 233.164 530.926V531.648ZM231.377 530.975C231.377 529.686 231.097 528.699 230.537 528.016C229.977 527.332 229.193 526.99 228.184 526.99C227.207 526.99 226.432 527.339 225.859 528.035C225.293 528.732 225.01 529.721 225.01 531.004V531.648C225.01 532.918 225.296 533.904 225.869 534.607C226.442 535.304 227.22 535.652 228.203 535.652C229.219 535.652 230 535.311 230.547 534.627C231.1 533.937 231.377 532.944 231.377 531.648V530.975ZM242.471 531.863H237.275V535.525H243.32V537H235.469V525.623H243.262V527.117H237.275V530.379H242.471V531.863ZM236.211 523.318C236.211 523.025 236.299 522.781 236.475 522.586C236.657 522.384 236.924 522.283 237.275 522.283C237.627 522.283 237.894 522.384 238.076 522.586C238.258 522.781 238.35 523.025 238.35 523.318C238.35 523.611 238.258 523.855 238.076 524.051C237.894 524.246 237.627 524.344 237.275 524.344C236.924 524.344 236.657 524.246 236.475 524.051C236.299 523.855 236.211 523.611 236.211 523.318ZM240.41 523.338C240.41 523.045 240.498 522.798 240.674 522.596C240.856 522.394 241.123 522.293 241.475 522.293C241.826 522.293 242.093 522.394 242.275 522.596C242.458 522.798 242.549 523.045 242.549 523.338C242.549 523.631 242.458 523.875 242.275 524.07C242.093 524.266 241.826 524.363 241.475 524.363C241.123 524.363 240.856 524.266 240.674 524.07C240.498 523.875 240.41 523.631 240.41 523.338ZM247.021 532.723V537H245.215V525.623H249.775C251.104 525.623 252.161 525.949 252.949 526.6C253.737 527.244 254.131 528.113 254.131 529.207C254.131 530.314 253.75 531.176 252.988 531.795C252.227 532.413 251.149 532.723 249.756 532.723H247.021ZM247.021 531.238H249.775C250.583 531.238 251.208 531.066 251.65 530.721C252.093 530.376 252.314 529.878 252.314 529.227C252.314 528.602 252.093 528.097 251.65 527.713C251.208 527.322 250.599 527.124 249.824 527.117H247.021V531.238ZM261.025 535.516L261.426 535.037C261.888 534.477 262.233 533.787 262.461 532.967C262.695 532.14 262.835 531.023 262.881 529.617L263.018 525.623H270.586V535.516H271.982V540.32H270.176V537H261.992V540.311H260.176L260.186 535.516H261.025ZM263.135 535.516H268.779V527.117H264.756L264.639 530.164C264.528 532.501 264.027 534.285 263.135 535.516ZM280.762 534.275H275.684L274.609 537H272.764L277.441 525.623H279.062L283.672 537H281.836L280.762 534.275ZM276.27 532.801H280.186L278.242 527.83L276.27 532.801ZM289.277 529.871L292.08 525.623H294.229L290.371 531.268L294.365 537H292.217L289.297 532.674L286.406 537H284.258L288.223 531.268L284.346 525.623H286.484L289.277 529.871ZM304.785 533.426C304.785 534.493 304.414 535.353 303.672 536.004C302.93 536.655 301.917 536.987 300.635 537H296.055V525.623H297.861V529.9H300.527C301.868 529.9 302.913 530.219 303.662 530.857C304.411 531.495 304.785 532.352 304.785 533.426ZM300.566 535.516C301.315 535.516 301.904 535.324 302.334 534.939C302.764 534.549 302.979 534.038 302.979 533.406C302.979 532.814 302.773 532.335 302.363 531.971C301.96 531.6 301.4 531.404 300.684 531.385H297.861V535.516H300.566ZM315.625 531.277L318.672 525.623H320.703L316.504 533.025V537H314.697V532.918L310.557 525.623H312.588L315.625 531.277ZM329.209 531.863H324.014V535.525H330.059V537H322.207V525.623H330V527.117H324.014V530.379H329.209V531.863ZM350 537H336.914V525.623H338.721V535.516H342.549V525.623H344.365V535.516H348.193V525.623H350V537ZM359.551 534.275H354.473L353.398 537H351.553L356.23 525.623H357.852L362.461 537H360.625L359.551 534.275ZM355.059 532.801H358.975L357.031 527.83L355.059 532.801ZM372.021 527.117H368.125V537H366.318V527.117H362.441V525.623H372.021V527.117Z" fill="#757575"/>
<circle cx="178.5" cy="530.5" r="6" fill="white" stroke="#757575" stroke-width="3"/>
<path d="M220.469 651.324H213.613V664H211.729V649.781H220.469V651.324ZM226.025 658.531L226.465 659.703L229.16 652.623H231.24L227.158 661.949L226.797 662.662C226.276 663.606 225.462 664.114 224.355 664.186L223.984 664.195C223.464 664.195 223.138 664.169 223.008 664.117L223.066 662.682L223.965 662.73C224.284 662.73 224.561 662.652 224.795 662.496C225.036 662.333 225.26 662.06 225.469 661.676L221.465 652.623H223.555L226.025 658.531ZM234.6 659.723V664H232.793V652.623H237.354C238.682 652.623 239.74 652.949 240.527 653.6C241.315 654.244 241.709 655.113 241.709 656.207C241.709 657.314 241.328 658.176 240.566 658.795C239.805 659.413 238.727 659.723 237.334 659.723H234.6ZM234.6 658.238H237.354C238.161 658.238 238.786 658.066 239.229 657.721C239.671 657.376 239.893 656.878 239.893 656.227C239.893 655.602 239.671 655.097 239.229 654.713C238.786 654.322 238.177 654.124 237.402 654.117H234.6V658.238ZM250.527 661.275H245.449L244.375 664H242.529L247.207 652.623H248.828L253.438 664H251.602L250.527 661.275ZM246.035 659.801H249.951L248.008 654.83L246.035 659.801ZM255 664V652.623H258.965C260.326 652.623 261.367 652.89 262.09 653.424C262.812 653.951 263.174 654.719 263.174 655.729C263.174 656.256 263.018 656.725 262.705 657.135C262.399 657.545 261.96 657.857 261.387 658.072C262.031 658.229 262.542 658.551 262.92 659.039C263.298 659.521 263.486 660.09 263.486 660.748C263.486 661.777 263.132 662.574 262.422 663.141C261.712 663.707 260.703 663.993 259.395 664H255ZM256.807 658.824V662.525H259.365C260.114 662.525 260.687 662.366 261.084 662.047C261.481 661.728 261.68 661.292 261.68 660.738C261.68 659.462 260.915 658.824 259.385 658.824H256.807ZM256.807 657.447H259.092C259.795 657.447 260.348 657.311 260.752 657.037C261.156 656.757 261.357 656.347 261.357 655.807C261.357 654.713 260.612 654.15 259.121 654.117H256.807V657.447ZM270.693 662.516L271.094 662.037C271.556 661.477 271.901 660.787 272.129 659.967C272.363 659.14 272.503 658.023 272.549 656.617L272.686 652.623H280.254V662.516H281.65V667.32H279.844V664H271.66V667.311H269.844L269.854 662.516H270.693ZM272.803 662.516H278.447V654.117H274.424L274.307 657.164C274.196 659.501 273.695 661.285 272.803 662.516ZM290.43 661.275H285.352L284.277 664H282.432L287.109 652.623H288.73L293.34 664H291.504L290.43 661.275ZM285.938 659.801H289.854L287.91 654.83L285.938 659.801ZM298.945 656.871L301.748 652.623H303.896L300.039 658.268L304.033 664H301.885L298.965 659.674L296.074 664H293.926L297.891 658.268L294.014 652.623H296.152L298.945 656.871ZM314.453 660.426C314.453 661.493 314.082 662.353 313.34 663.004C312.598 663.655 311.585 663.987 310.303 664H305.723V652.623H307.529V656.9H310.195C311.536 656.9 312.581 657.219 313.33 657.857C314.079 658.495 314.453 659.352 314.453 660.426ZM310.234 662.516C310.983 662.516 311.572 662.324 312.002 661.939C312.432 661.549 312.646 661.038 312.646 660.406C312.646 659.814 312.441 659.335 312.031 658.971C311.628 658.6 311.068 658.404 310.352 658.385H307.529V662.516H310.234ZM325.293 658.277L328.34 652.623H330.371L326.172 660.025V664H324.365V659.918L320.225 652.623H322.256L325.293 658.277ZM338.877 658.863H333.682V662.525H339.727V664H331.875V652.623H339.668V654.117H333.682V657.379H338.877V658.863ZM359.668 664H346.582V652.623H348.389V662.516H352.217V652.623H354.033V662.516H357.861V652.623H359.668V664ZM369.219 661.275H364.141L363.066 664H361.221L365.898 652.623H367.52L372.129 664H370.293L369.219 661.275ZM364.727 659.801H368.643L366.699 654.83L364.727 659.801ZM381.689 654.117H377.793V664H375.986V654.117H372.109V652.623H381.689V654.117Z" fill="#757575"/>
<circle cx="178.5" cy="657.5" r="6" fill="white" stroke="#757575" stroke-width="3"/>
<defs>
<filter id="filter0_di_257_44" x="0.5" y="0" width="185.5" height="1107.5" filterUnits="userSpaceOnUse" color-interpolation-filters="sRGB">
<feFlood flood-opacity="0" result="BackgroundImageFix"/>
<feColorMatrix in="SourceAlpha" type="matrix" values="0 0 0 0 0 0 0 0 0 0 0 0 0 0 0 0 0 0 127 0" result="hardAlpha"/>
<feOffset dx="4" dy="4"/>
<feGaussianBlur stdDeviation="0.5"/>
<feComposite in2="hardAlpha" operator="out"/>
<feColorMatrix type="matrix" values="0 0 0 0 0 0 0 0 0 0 0 0 0 0 0 0 0 0 1 0"/>
<feBlend mode="normal" in2="BackgroundImageFix" result="effect1_dropShadow_257_44"/>
<feBlend mode="normal" in="SourceGraphic" in2="effect1_dropShadow_257_44" result="shape"/>
<feColorMatrix in="SourceAlpha" type="matrix" values="0 0 0 0 0 0 0 0 0 0 0 0 0 0 0 0 0 0 127 0" result="hardAlpha"/>
<feOffset dx="1" dy="1"/>
<feGaussianBlur stdDeviation="0.5"/>
<feComposite in2="hardAlpha" operator="arithmetic" k2="-1" k3="1"/>
<feColorMatrix type="matrix" values="0 0 0 0 1 0 0 0 0 1 0 0 0 0 1 0 0 0 0.75 0"/>
<feBlend mode="normal" in2="shape" result="effect2_innerShadow_257_44"/>
</filter>
</defs>
</svg>
